<svg width="32" height="32" viewBox="0 0 32 32" fill="none" xmlns="http://www.w3.org/2000/svg">
<rect width="32" height="32" rx="2.5" fill="#38B2AC"/>
<path d="M18.7309 12.024H21.61C21.5535 9.23366 19.1744 7.25783 15.6583 7.25783C12.1905 7.25783 9.5856 9.20947 9.59367 12.1289C9.59367 14.4999 11.2792 15.8628 13.997 16.5644L15.876 17.0483C17.6583 17.4999 18.8357 18.0564 18.8438 19.3386C18.8357 20.75 17.497 21.6935 15.5454 21.6935C13.6744 21.6935 12.2227 20.8548 12.1018 19.1209H9.15818C9.27915 22.4032 11.7227 24.25 15.5696 24.25C19.5293 24.25 21.8277 22.2742 21.8358 19.3628C21.8277 16.4999 19.4648 15.1934 16.9809 14.6047L15.4325 14.2176C14.0776 13.895 12.6098 13.3224 12.626 11.9434C12.634 10.7014 13.747 9.79012 15.6179 9.79012C17.4002 9.79012 18.5777 10.6208 18.7309 12.024Z" fill="white"/>
</svg>
