<svg width="124" height="30" viewBox="0 0 124 30" fill="none" xmlns="http://www.w3.org/2000/svg">
<path d="M13.0092 7.17969H16.8125C16.7379 3.49361 13.5952 0.883522 8.95028 0.883522C4.36932 0.883522 0.928267 3.46165 0.938921 7.31818C0.938921 10.4503 3.16548 12.2507 6.75568 13.1776L9.23793 13.8168C11.5923 14.4134 13.1477 15.1484 13.1584 16.8423C13.1477 18.7067 11.3793 19.9531 8.80114 19.9531C6.32955 19.9531 4.41193 18.8452 4.25213 16.5547H0.363636C0.523438 20.8906 3.75142 23.3303 8.8331 23.3303C14.0639 23.3303 17.1001 20.7202 17.1108 16.8743C17.1001 13.0923 13.9787 11.3665 10.6974 10.5888L8.65199 10.0774C6.86222 9.65128 4.9233 8.89489 4.9446 7.07315C4.95526 5.43253 6.42543 4.22869 8.89702 4.22869C11.2514 4.22869 12.8068 5.32599 13.0092 7.17969ZM29.3936 16.1179C29.3936 18.6108 27.6145 19.8466 25.91 19.8466C24.0563 19.8466 22.8205 18.5362 22.8205 16.4588V6.63636H18.964V17.0554C18.964 20.9865 21.2012 23.2131 24.4185 23.2131C26.8688 23.2131 28.5946 21.924 29.3404 20.0916H29.5108V23H33.2502V6.63636H29.3936V16.1179ZM35.7159 23H39.5724V13.38C39.5724 11.3026 41.1385 9.83239 43.2585 9.83239C43.9084 9.83239 44.718 9.94957 45.0483 10.0561V6.50852C44.6967 6.4446 44.0895 6.40199 43.6634 6.40199C41.7884 6.40199 40.2223 7.46733 39.6257 9.36364H39.4553V6.63636H35.7159V23ZM61.225 6.63636H57.1234L53.3521 18.7919H53.1816L49.421 6.63636H45.3088L51.1362 23H55.3976L61.225 6.63636ZM69.0813 23.3196C72.8952 23.3196 75.516 21.4553 76.1978 18.6108L72.5969 18.206C72.0749 19.5909 70.7965 20.3153 69.1346 20.3153C66.6417 20.3153 64.9904 18.6747 64.9585 15.8729H76.3576V14.6903C76.3576 8.94815 72.9059 6.4233 68.8789 6.4233C64.1914 6.4233 61.1339 9.86435 61.1339 14.9141C61.1339 20.049 64.1488 23.3196 69.0813 23.3196ZM64.9691 13.2734C65.0863 11.1854 66.631 9.42756 68.9322 9.42756C71.1481 9.42756 72.6396 11.0469 72.6609 13.2734H64.9691ZM82.829 23.3303C85.3965 23.3303 86.9306 22.1264 87.6337 20.7521H87.7615V23H91.4689V12.0483C91.4689 7.72301 87.9426 6.4233 84.8212 6.4233C81.3801 6.4233 78.7381 7.95739 77.8858 10.9403L81.4867 11.4517C81.8702 10.3331 82.9569 9.37429 84.8425 9.37429C86.6323 9.37429 87.6124 10.2905 87.6124 11.8991V11.9631C87.6124 13.071 86.4512 13.1243 83.5641 13.4332C80.3894 13.7741 77.3532 14.7223 77.3532 18.4084C77.3532 21.6257 79.7076 23.3303 82.829 23.3303ZM83.8304 20.4964C82.2218 20.4964 81.0712 19.7614 81.0712 18.3445C81.0712 16.8636 82.3603 16.2457 84.0861 16.0007C85.0982 15.8622 87.1223 15.6065 87.623 15.2017V17.13C87.623 18.9517 86.1529 20.4964 83.8304 20.4964ZM106.78 10.9616C106.247 8.19176 104.031 6.4233 100.196 6.4233C96.2544 6.4233 93.5698 8.36222 93.5804 11.3878C93.5698 13.7741 95.04 15.3509 98.1827 16.0007L100.974 16.5866C102.476 16.9169 103.179 17.5241 103.179 18.451C103.179 19.5696 101.965 20.4112 100.132 20.4112C98.3638 20.4112 97.2132 19.6442 96.883 18.174L93.1223 18.5362C93.6017 21.5405 96.1266 23.3196 100.143 23.3196C104.234 23.3196 107.121 21.1996 107.132 18.0994C107.121 15.7663 105.619 14.3388 102.529 13.6676L99.7381 13.071C98.0762 12.6982 97.4157 12.1229 97.4263 11.1747C97.4157 10.0668 98.6408 9.29972 100.249 9.29972C102.029 9.29972 102.966 10.2692 103.264 11.3452L106.78 10.9616ZM111.209 29.1364C114.213 29.1364 115.949 27.5916 116.876 24.9815L123.449 6.65767L119.327 6.63636L115.545 18.9943H115.374L111.603 6.63636H107.512L113.446 23.3409L113.116 24.2251C112.402 26.0895 111.273 26.2173 109.589 25.7273L108.694 28.7315C109.216 28.9446 110.154 29.1364 111.209 29.1364Z" fill="#38B2AC"/>
</svg>
